#!OML:ASF F:\VICON\USERDATA\INSTALL\rory3\rory3.ASF
:FULLY-SPECIFIED
:DEGREES
1033
root -0.353053 20.9524 7.29786 -0.963859 2.50712 4.10235
lowerback 5.10049 -0.485452 -4.57358
upperback 2.30976 -0.838998 1.92003
thorax -0.380768 -0.459987 4.59987
lowerneck -12.3763 1.63226 -9.83874
upperneck 41.2926 5.54706 0.471887
head 16.8677 0.843127 2.92874
rclavicle -5.26779e-015 -8.74653e-015
rhumerus -33.0927 -5.9893 -76.0286
rradius 38.6106
rwrist 18.6797
rhand -18.2126 0.640985
rfingers 7.12502
rthumb 8.06515 -29.1851
lclavicle -5.26779e-015 -8.74653e-015
lhumerus -37.6811 10.4768 80.495
lradius 29.4811
lwrist -6.5498
lhand -6.65039 28.0661
lfingers 7.12502
lthumb 19.207 57.1377
rfemur -33.8962 -3.28069 15.5719
rtibia 63.9516
rfoot 10.0984 -11.9894
rtoes 9.04571
lfemur -8.52675 0.146694 -29.2108
ltibia 32.169
lfoot -6.35092 -3.70173
ltoes 4.67787
1034
root -0.357659 20.9115 7.37621 -0.875674 2.5977 4.12793
lowerback 4.91153 -0.518344 -4.64569
upperback 2.32992 -0.878057 1.89719
thorax -0.249166 -0.484006 4.61571
lowerneck -12.4853 1.61538 -9.6478
upperneck 41.3194 5.53054 0.349038
head 16.9235 0.84452 2.84194
rclavicle 3.23025e-014 -2.62396e-014
rhumerus -33.1822 -5.77326 -76.148
rradius 38.8001
rwrist 17.7401
rhand -19.5693 1.51383
rfingers 7.12502
rthumb 6.75561 -28.3584
lclavicle 3.23025e-014 -2.62396e-014
lhumerus -37.592 10.1592 80.5465
lradius 29.7341
lwrist -6.49735
lhand -6.73657 27.6331
lfingers 7.12502
lthumb 19.1242 56.7129
rfemur -33.2566 -2.86883 15.5546
rtibia 60.9681
rfoot 11.2429 -13.2323
rtoes 9.51839
lfemur -8.73499 0.189293 -29.1972
ltibia 33.0197
lfoot -6.99571 -3.73658
ltoes 4.36101
1035
root -0.361994 20.8661 7.45309 -0.682611 2.74631 4.20183
lowerback 4.6966 -0.581852 -4.76233
upperback 2.26651 -0.959204 1.87297
thorax -0.183569 -0.52583 4.65741
lowerneck -12.5265 1.59401 -9.45091
upperneck 41.3651 5.52339 0.160955
head 16.9774 0.841543 2.72469
rclavicle -1.41137e-014 7.15625e-015
rhumerus -33.3884 -5.77728 -76.09
rradius 39.3332
rwrist 18.5926
rhand -19.2621 0.798222
rfingers 7.12502
rthumb 7.05214 -29.0643
lclavicle -1.41137e-014 7.15625e-015
lhumerus -37.5075 9.90872 80.5856
lradius 29.9015
lwrist -6.47701
lhand -6.87777 27.4016
lfingers 7.12502
lthumb 18.9884 56.4947
rfemur -32.6688 -2.4968 15.4676
rtibia 58.0265
rfoot 11.9711 -14.6468
rtoes 11.025
lfemur -9.04588 0.203052 -29.2476
ltibia 33.8785
lfoot -7.71677 -3.76136
ltoes 5.19682
1036
root -0.36821 20.818 7.53101 -0.489751 2.95828 4.30933
lowerback 4.50393 -0.652719 -4.91623
upperback 2.15718 -1.05273 1.84651
thorax -0.175293 -0.571443 4.71887
lowerneck -12.4003 1.56896 -9.51576
upperneck 41.3399 5.46232 0.214361
head 16.9303 0.817512 2.74553
rclavicle -6.85807e-015 -1.43125e-014
rhumerus -33.7354 -5.71115 -76.0347
rradius 39.8301
rwrist 18.774
rhand -18.6501 0.564289
rfingers 7.12502
rthumb 7.64288 -29.2776
lclavicle -6.85807e-015 -1.43125e-014
lhumerus -37.4871 9.64095 80.6019
lradius 30.059
lwrist -6.52611
lhand -6.81599 27.558
lfingers 7.12502
lthumb 19.0478 56.6453
rfemur -32.0601 -2.19653 15.3653
rtibia 55.147
rfoot 12.8654 -15.6877
rtoes 12.1365
lfemur -9.31782 0.13334 -29.3349
ltibia 34.7155
lfoot -8.45337 -3.80392
ltoes 4.46656
1037
root -0.374803 20.7713 7.61032 -0.435478 3.12828 4.30318
lowerback 4.39994 -0.697473 -4.94713
upperback 2.10871 -1.10945 1.83674
thorax -0.160103 -0.59935 4.72711
lowerneck -12.3569 1.53076 -9.57493
upperneck 41.3879 5.38609 0.295648
head 16.9449 0.78614 2.7801
rclavicle 9.64106e-015 -4.77083e-015
rhumerus -34.056 -5.68945 -76.0239
rradius 40.2047
rwrist 18.5537
rhand -18.4874 0.852744
rfingers 7.12502
rthumb 7.79996 -28.9834
lclavicle 9.64106e-015 -4.77083e-015
lhumerus -37.4983 9.23832 80.6219
lradius 30.3083
lwrist -6.37013
lhand -6.68688 27.8039
lfingers 7.12502
lthumb 19.1719 56.8789
rfemur -31.3035 -1.91804 15.4303
rtibia 52.3238
rfoot 14.0505 -16.4194
rtoes 13.177
lfemur -9.43576 0.131096 -29.2933
ltibia 35.5069
lfoot -9.25223 -3.81483
ltoes 4.17295
1038
root -0.380962 20.7265 7.69154 -0.417759 3.28827 4.37122
lowerback 4.34299 -0.743799 -5.03552
upperback 2.05735 -1.17288 1.79674
thorax -0.172648 -0.62997 4.73755
lowerneck -12.3406 1.48587 -9.60507
upperneck 41.4783 5.30855 0.349735
head 16.993 0.751581 2.79926
rclavicle -1.98785e-015 8.74653e-015
rhumerus -34.2766 -5.65217 -76.0251
rradius 40.3268
rwrist 18.2335
rhand -19.0691 1.15557
rfingers 7.12502
rthumb 7.23847 -28.7006
lclavicle -1.98785e-015 8.74653e-015
lhumerus -37.5849 9.00195 80.5773
lradius 30.6944
lwrist -6.21155
lhand -6.54728 27.9809
lfingers 7.12502
lthumb 19.3062 57.0425
rfemur -30.479 -1.62015 15.4157
rtibia 49.5913
rfoot 14.9067 -17.2819
rtoes 15.9552
lfemur -9.50648 0.138112 -29.3218
ltibia 36.2662
lfoot -10.0308 -3.87296
ltoes 5.0898
1039
root -0.387545 20.6803 7.77743 -0.445735 3.45455 4.43661
lowerback 4.27126 -0.789696 -5.126
upperback 2.07055 -1.23402 1.7671
thorax -0.11009 -0.663227 4.75871
lowerneck -12.3847 1.44628 -9.62631
upperneck 41.503 5.26758 0.338988
head 17.0221 0.727303 2.79344
rclavicle -1.68967e-015 1.03368e-014
rhumerus -34.4209 -5.63016 -76.0453
rradius 40.3434
rwrist 17.6909
rhand -19.8695 1.73342
rfingers 7.12502
rthumb 6.4658 -28.1479
lclavicle -1.68967e-015 1.03368e-014
lhumerus -37.5658 9.03971 80.4609
lradius 31.0281
lwrist -6.16048
lhand -6.55423 27.8902
lfingers 7.12502
lthumb 19.2995 56.9525
rfemur -29.5718 -1.26131 15.3943
rtibia 46.9389
rfoot 15.4496 -18.3655
rtoes 19.8969
lfemur -9.49959 0.127651 -29.339
ltibia 37.05
lfoot -10.8207 -3.94668
ltoes 5.7974
1040
root -0.391885 20.6295 7.86344 -0.318148 3.56423 4.51288
lowerback 3.97111 -0.81289 -5.20362
upperback 2.07911 -1.25285 1.75407
thorax 0.0704065 -0.678792 4.7835
lowerneck -12.4058 1.41311 -9.76119
upperneck 41.5149 5.22446 0.43428
head 17.029 0.701225 2.85395
rclavicle 2.88238e-015 -1.66979e-014
rhumerus -34.6186 -5.72431 -75.9341
rradius 40.7523
rwrist 18.2298
rhand -19.3672 0.940538
rfingers 7.12502
rthumb 6.95067 -28.9253
lclavicle 2.88238e-015 -1.66979e-014
lhumerus -37.381 9.13615 80.3801
lradius 31.1759
lwrist -6.05925
lhand -6.71164 27.7715
lfingers 7.12502
lthumb 19.1481 56.8489
rfemur -28.8366 -0.960754 15.3825
rtibia 44.3789
rfoot 16.206 -19.0505
rtoes 22.6544
lfemur -9.66968 0.191461 -29.38
ltibia 37.8716
lfoot -11.6331 -4.0292
ltoes 6.20073
1041
root -0.39624 20.5777 7.9446 -0.199309 3.64556 4.45114
lowerback 3.79285 -0.811229 -5.1459
upperback 1.99864 -1.24101 1.77603
thorax 0.0845536 -0.671049 4.77055
lowerneck -12.2967 1.35151 -9.9071
upperneck 41.5136 5.12009 0.531311
head 16.9998 0.651566 2.90316
rclavicle 1.30204e-014 9.54166e-015
rhumerus -34.9736 -5.69464 -75.85
rradius 40.9447
rwrist 17.6812
rhand -19.6194 1.2413
rfingers 7.12502
rthumb 6.70721 -28.6325
lclavicle 1.30204e-014 9.54166e-015
lhumerus -37.3264 9.13878 80.3067
lradius 31.3285
lwrist -5.93908
lhand -6.84661 28.0062
lfingers 7.12502
lthumb 19.0183 57.0964
rfemur -28.081 -0.539926 15.5128
rtibia 41.9133
rfoot 16.9184 -19.41
rtoes 24.1298
lfemur -9.89151 0.295867 -29.2623
ltibia 38.7697
lfoot -12.4052 -4.09539
ltoes 6.21048
1042
root -0.404234 20.5254 8.02923 -0.166348 3.75035 4.38335
lowerback 3.65361 -0.815118 -5.15055
upperback 1.966 -1.23986 1.81757
thorax 0.129706 -0.671349 4.81402
lowerneck -12.1984 1.28748 -10.0297
upperneck 41.4536 5.00203 0.625216
head 16.9419 0.602563 2.94314
rclavicle -1.87852e-014 3.18055e-015
rhumerus -35.2806 -5.7223 -75.7564
rradius 41.2167
rwrist 17.4694
rhand -19.6408 1.21472
rfingers 7.12502
rthumb 6.68656 -28.6597
lclavicle -1.87852e-014 3.18055e-015
lhumerus -37.2236 9.24851 80.204
lradius 31.4304
lwrist -5.87674
lhand -7.02853 27.9915
lfingers 7.12502
lthumb 18.8434 57.0988
rfemur -27.2376 -0.104406 15.6732
rtibia 39.5764
rfoot 17.5293 -19.8127
rtoes 24.3197
lfemur -10.0569 0.421315 -29.1065
ltibia 39.7155
lfoot -13.0852 -4.21419
ltoes 7.06245
1043
root -0.413256 20.4677 8.11659 -0.0882524 3.84276 4.3643
lowerback 3.44469 -0.816998 -5.14507
upperback 1.9382 -1.23241 1.80285
thorax 0.21645 -0.669409 4.79145
lowerneck -12.1502 1.27423 -9.98968
upperneck 41.4526 4.95655 0.643609
head 16.9315 0.594072 2.93589
rclavicle -1.95803e-014 2.8625e-014
rhumerus -35.575 -5.83136 -75.7172
rradius 41.387
rwrist 17.3162
rhand -19.9578 1.49777
rfingers 7.12502
rthumb 6.38056 -28.3861
lclavicle -1.95803e-014 2.8625e-014
lhumerus -37.119 9.29015 80.0332
lradius 31.5666
lwrist -5.7237
lhand -7.15197 27.6242
lfingers 7.12502
lthumb 18.7247 56.7429
rfemur -26.4432 0.239805 15.7897
rtibia 37.4102
rfoot 18.1074 -19.8599
rtoes 23.0358
lfemur -10.2794 0.534923 -29.0149
ltibia 40.6821
lfoot -13.7586 -4.37353
ltoes 8.45658
1044
root -0.42012 20.4076 8.2038 0.0422173 3.94376 4.46215
lowerback 3.20321 -0.816002 -5.17434
upperback 1.87694 -1.221 1.71804
thorax 0.285603 -0.664017 4.71527
lowerneck -12.1031 1.26875 -9.88788
upperneck 41.4774 4.93155 0.604051
head 16.9391 0.594076 2.89602
rclavicle 1.2921e-014 2.38542e-015
rhumerus -35.8397 -5.95881 -75.7223
rradius 41.4375
rwrist 17.0593
rhand -20.1277 1.68467
rfingers 7.12502
rthumb 6.21654 -28.2041
lclavicle 1.2921e-014 2.38542e-015
lhumerus -37.052 9.32893 79.8401
lradius 31.8198
lwrist -5.46756
lhand -7.1491 27.7315
lfingers 7.12502
lthumb 18.7274 56.85
rfemur -25.7309 0.545256 15.7678
rtibia 35.46
rfoot 18.4956 -19.9916
rtoes 21.9008
lfemur -10.5132 0.632019 -29.0653
ltibia 41.6474
lfoot -14.4517 -4.47986
ltoes 8.27025
1045
root -0.427345 20.3441 8.29154 0.108163 4.01129 4.61178
lowerback 3.02337 -0.80068 -5.26499
upperback 1.83036 -1.1946 1.62365
thorax 0.334965 -0.651352 4.66477
lowerneck -12.0042 1.23788 -9.92101
upperneck 41.4406 4.84153 0.694832
head 16.8933 0.568717 2.92435
rclavicle 1.0635e-014 5.56597e-015
rhumerus -36.0475 -6.13263 -75.7264
rradius 41.4142
rwrist 16.8914
rhand -20.2746 1.60267
rfingers 7.12502
rthumb 6.07469 -28.2902
lclavicle 1.0635e-014 5.56597e-015
lhumerus -37.024 9.40096 79.644
lradius 32.1347
lwrist -5.27049
lhand -7.17518 27.9158
lfingers 7.12502
lthumb 18.7023 57.0367
rfemur -25.012 0.767589 15.7329
rtibia 33.7391
rfoot 18.5423 -21.0271
rtoes 23.126
lfemur -10.6841 0.769921 -29.1599
ltibia 42.6386
lfoot -15.0784 -4.4095
ltoes 7.44542
1046
root -0.435521 20.272 8.37828 0.143164 4.12429 4.73217
lowerback 2.89662 -0.800038 -5.3587
upperback 1.79371 -1.19003 1.56297
thorax 0.368384 -0.649622 4.65258
lowerneck -11.9094 1.23131 -9.86218
upperneck 41.398 4.81048 0.667396
head 16.85 0.565991 2.89305
rclavicle 1.65985e-014 -1.66979e-014
rhumerus -36.2811 -6.347 -75.6516
rradius 41.415
rwrist 16.9712
rhand -20.1886 1.44758
rfingers 7.12502
rthumb 6.1577 -28.4429
lclavicle 1.65985e-014 -1.66979e-014
lhumerus -36.9938 9.50037 79.4582
lradius 32.3992
lwrist -5.08107
lhand -7.43164 27.9911
lfingers 7.12502
lthumb 18.4556 57.1356
rfemur -24.2752 0.794096 15.7807
rtibia 32.2111
rfoot 18.5773 -21.9313
rtoes 24.975
lfemur -10.8303 0.873772 -29.2092
ltibia 43.651
lfoot -15.7761 -4.26065
ltoes 5.95112
